<mxfile host="app.diagrams.net" modified="2023-12-22T06:43:16.268Z" agent="Mozilla/5.0 (X11; Ubuntu; Linux x86_64; rv:109.0) Gecko/20100101 Firefox/119.0" etag="84ndY-Wp8pb2qdAxXRgO" version="22.1.11" type="device">
  <diagram name="Page-1" id="G1E-o2sUnaRfctfOdFAP">
    <mxGraphModel dx="1366" dy="766" grid="1" gridSize="10" guides="1" tooltips="1" connect="1" arrows="1" fold="1" page="1" pageScale="1" pageWidth="850" pageHeight="1100" math="0" shadow="0">
      <root>
        <mxCell id="0" />
        <mxCell id="1" parent="0" />
        <mxCell id="QaKVlhrQLgwFmd9rYQSE-12" style="edgeStyle=orthogonalEdgeStyle;rounded=0;orthogonalLoop=1;jettySize=auto;html=1;exitX=0.5;exitY=0;exitDx=0;exitDy=0;entryX=1;entryY=0.5;entryDx=0;entryDy=0;" edge="1" parent="1" source="nMN-DpjDkvB5x4g8xDvF-4" target="nMN-DpjDkvB5x4g8xDvF-5">
          <mxGeometry relative="1" as="geometry" />
        </mxCell>
        <mxCell id="QaKVlhrQLgwFmd9rYQSE-13" value="&lt;div style=&quot;font-size: 12px;&quot;&gt;&lt;font style=&quot;font-size: 12px;&quot;&gt;&lt;b&gt;&lt;font style=&quot;font-size: 12px;&quot; face=&quot;Verdana&quot;&gt;Wrong Tolerance&lt;/font&gt;&lt;/b&gt;&lt;br&gt;&lt;b&gt;&lt;font style=&quot;font-size: 12px;&quot; face=&quot;Verdana&quot;&gt;Hard Assembly&lt;/font&gt;&lt;/b&gt;&lt;br&gt;&lt;/font&gt;&lt;/div&gt;" style="edgeLabel;html=1;align=left;verticalAlign=middle;resizable=0;points=[];" vertex="1" connectable="0" parent="QaKVlhrQLgwFmd9rYQSE-12">
          <mxGeometry x="0.0532" y="3" relative="1" as="geometry">
            <mxPoint x="-32" y="22" as="offset" />
          </mxGeometry>
        </mxCell>
        <mxCell id="QaKVlhrQLgwFmd9rYQSE-14" style="edgeStyle=orthogonalEdgeStyle;rounded=0;orthogonalLoop=1;jettySize=auto;html=1;exitX=0;exitY=0.5;exitDx=0;exitDy=0;" edge="1" parent="1" source="nMN-DpjDkvB5x4g8xDvF-4" target="QaKVlhrQLgwFmd9rYQSE-1">
          <mxGeometry relative="1" as="geometry" />
        </mxCell>
        <mxCell id="QaKVlhrQLgwFmd9rYQSE-21" style="edgeStyle=orthogonalEdgeStyle;rounded=0;orthogonalLoop=1;jettySize=auto;html=1;exitX=1;exitY=0.5;exitDx=0;exitDy=0;entryX=1;entryY=0.5;entryDx=0;entryDy=0;" edge="1" parent="1" source="nMN-DpjDkvB5x4g8xDvF-4" target="QaKVlhrQLgwFmd9rYQSE-9">
          <mxGeometry relative="1" as="geometry" />
        </mxCell>
        <mxCell id="QaKVlhrQLgwFmd9rYQSE-23" value="&lt;font size=&quot;1&quot; face=&quot;Verdana&quot;&gt;&lt;b style=&quot;font-size: 12px;&quot;&gt;Miss Requirements&lt;/b&gt;&lt;/font&gt;" style="edgeLabel;html=1;align=center;verticalAlign=middle;resizable=0;points=[];" vertex="1" connectable="0" parent="QaKVlhrQLgwFmd9rYQSE-21">
          <mxGeometry x="-0.1309" y="-1" relative="1" as="geometry">
            <mxPoint x="-41" y="21" as="offset" />
          </mxGeometry>
        </mxCell>
        <mxCell id="nMN-DpjDkvB5x4g8xDvF-4" value="3D-Printing" style="rounded=1;whiteSpace=wrap;html=1;fillColor=#fff2cc;strokeColor=#d6b656;strokeWidth=2;fontFamily=Verdana;fontStyle=1" parent="1" vertex="1">
          <mxGeometry x="510" y="290" width="110" height="50" as="geometry" />
        </mxCell>
        <mxCell id="QaKVlhrQLgwFmd9rYQSE-11" style="rounded=0;orthogonalLoop=1;jettySize=auto;html=1;exitX=1;exitY=1;exitDx=0;exitDy=0;entryX=0;entryY=0;entryDx=0;entryDy=0;" edge="1" parent="1" source="nMN-DpjDkvB5x4g8xDvF-5" target="nMN-DpjDkvB5x4g8xDvF-4">
          <mxGeometry relative="1" as="geometry" />
        </mxCell>
        <mxCell id="nMN-DpjDkvB5x4g8xDvF-5" value="3D-Modelling&lt;br&gt; with CAD" style="rounded=1;whiteSpace=wrap;html=1;fillColor=#f8cecc;strokeColor=#b85450;strokeWidth=2;fontFamily=Verdana;fontStyle=1" parent="1" vertex="1">
          <mxGeometry x="337.5" y="200" width="125" height="50" as="geometry" />
        </mxCell>
        <mxCell id="QaKVlhrQLgwFmd9rYQSE-15" style="edgeStyle=orthogonalEdgeStyle;rounded=0;orthogonalLoop=1;jettySize=auto;html=1;exitX=0.5;exitY=0;exitDx=0;exitDy=0;entryX=0;entryY=0.5;entryDx=0;entryDy=0;" edge="1" parent="1" source="QaKVlhrQLgwFmd9rYQSE-1" target="nMN-DpjDkvB5x4g8xDvF-5">
          <mxGeometry relative="1" as="geometry" />
        </mxCell>
        <mxCell id="QaKVlhrQLgwFmd9rYQSE-16" value="&lt;font size=&quot;1&quot; face=&quot;Verdana&quot;&gt;&lt;b style=&quot;font-size: 12px;&quot;&gt;Miss Requirements&lt;/b&gt;&lt;/font&gt;" style="edgeLabel;html=1;align=center;verticalAlign=middle;resizable=0;points=[];" vertex="1" connectable="0" parent="QaKVlhrQLgwFmd9rYQSE-15">
          <mxGeometry x="-0.363" y="-1" relative="1" as="geometry">
            <mxPoint x="9" y="29" as="offset" />
          </mxGeometry>
        </mxCell>
        <mxCell id="QaKVlhrQLgwFmd9rYQSE-17" style="edgeStyle=orthogonalEdgeStyle;rounded=0;orthogonalLoop=1;jettySize=auto;html=1;exitX=0.5;exitY=1;exitDx=0;exitDy=0;entryX=0.5;entryY=1;entryDx=0;entryDy=0;" edge="1" parent="1" source="QaKVlhrQLgwFmd9rYQSE-1" target="nMN-DpjDkvB5x4g8xDvF-4">
          <mxGeometry relative="1" as="geometry">
            <Array as="points">
              <mxPoint x="250" y="380" />
              <mxPoint x="565" y="380" />
            </Array>
          </mxGeometry>
        </mxCell>
        <mxCell id="QaKVlhrQLgwFmd9rYQSE-18" value="&lt;div&gt;&lt;b&gt;&lt;span style=&quot;font-size: 12px;&quot;&gt;&lt;font style=&quot;font-size: 12px;&quot; face=&quot;Verdana&quot;&gt;Suboptimal Print Orientation&lt;br&gt;Wrong Material&lt;/font&gt;&lt;/span&gt;&lt;br&gt;&lt;/b&gt;&lt;/div&gt;" style="edgeLabel;html=1;align=center;verticalAlign=middle;resizable=0;points=[];" vertex="1" connectable="0" parent="QaKVlhrQLgwFmd9rYQSE-17">
          <mxGeometry x="-0.0076" y="3" relative="1" as="geometry">
            <mxPoint x="4" as="offset" />
          </mxGeometry>
        </mxCell>
        <mxCell id="QaKVlhrQLgwFmd9rYQSE-19" style="edgeStyle=orthogonalEdgeStyle;rounded=0;orthogonalLoop=1;jettySize=auto;html=1;exitX=0;exitY=0.5;exitDx=0;exitDy=0;entryX=0;entryY=0.5;entryDx=0;entryDy=0;" edge="1" parent="1" source="QaKVlhrQLgwFmd9rYQSE-1" target="QaKVlhrQLgwFmd9rYQSE-9">
          <mxGeometry relative="1" as="geometry" />
        </mxCell>
        <mxCell id="QaKVlhrQLgwFmd9rYQSE-20" value="&lt;font size=&quot;1&quot; face=&quot;Verdana&quot;&gt;&lt;b style=&quot;font-size: 12px;&quot;&gt;Miss Requirements&lt;/b&gt;&lt;/font&gt;" style="edgeLabel;html=1;align=center;verticalAlign=middle;resizable=0;points=[];" vertex="1" connectable="0" parent="QaKVlhrQLgwFmd9rYQSE-19">
          <mxGeometry x="-0.2395" y="2" relative="1" as="geometry">
            <mxPoint x="32" y="-1" as="offset" />
          </mxGeometry>
        </mxCell>
        <mxCell id="QaKVlhrQLgwFmd9rYQSE-1" value="Testing" style="rounded=1;whiteSpace=wrap;html=1;fillColor=#ffe6cc;strokeColor=#d79b00;strokeWidth=2;fontFamily=Verdana;fontStyle=1" vertex="1" parent="1">
          <mxGeometry x="180" y="290" width="140" height="50" as="geometry" />
        </mxCell>
        <mxCell id="QaKVlhrQLgwFmd9rYQSE-10" style="edgeStyle=orthogonalEdgeStyle;rounded=0;orthogonalLoop=1;jettySize=auto;html=1;exitX=0.5;exitY=1;exitDx=0;exitDy=0;entryX=0.5;entryY=0;entryDx=0;entryDy=0;" edge="1" parent="1" source="QaKVlhrQLgwFmd9rYQSE-9" target="nMN-DpjDkvB5x4g8xDvF-5">
          <mxGeometry relative="1" as="geometry" />
        </mxCell>
        <mxCell id="QaKVlhrQLgwFmd9rYQSE-9" value="&lt;font face=&quot;Verdana&quot;&gt;&lt;b&gt;Select&lt;br&gt;Design&lt;br&gt;&lt;/b&gt;&lt;/font&gt;" style="ellipse;whiteSpace=wrap;html=1;fillColor=#ffe6cc;strokeColor=#d79b00;strokeWidth=2;" vertex="1" parent="1">
          <mxGeometry x="350" y="90" width="100" height="60" as="geometry" />
        </mxCell>
        <mxCell id="QaKVlhrQLgwFmd9rYQSE-29" value="" style="group" vertex="1" connectable="0" parent="1">
          <mxGeometry x="425" y="400" width="230" height="68" as="geometry" />
        </mxCell>
        <mxCell id="QaKVlhrQLgwFmd9rYQSE-24" value="" style="whiteSpace=wrap;html=1;aspect=fixed;fillColor=#fff2cc;strokeColor=#d6b656;" vertex="1" parent="QaKVlhrQLgwFmd9rYQSE-29">
          <mxGeometry y="10" width="30" height="30" as="geometry" />
        </mxCell>
        <mxCell id="QaKVlhrQLgwFmd9rYQSE-25" value="" style="whiteSpace=wrap;html=1;aspect=fixed;fillColor=#ffe6cc;strokeColor=#d79b00;" vertex="1" parent="QaKVlhrQLgwFmd9rYQSE-29">
          <mxGeometry x="30" y="10" width="30" height="30" as="geometry" />
        </mxCell>
        <mxCell id="QaKVlhrQLgwFmd9rYQSE-26" value="" style="whiteSpace=wrap;html=1;aspect=fixed;fillColor=#f8cecc;strokeColor=#b85450;" vertex="1" parent="QaKVlhrQLgwFmd9rYQSE-29">
          <mxGeometry x="60" y="10" width="30" height="30" as="geometry" />
        </mxCell>
        <mxCell id="QaKVlhrQLgwFmd9rYQSE-27" value="&lt;b&gt;&lt;font face=&quot;Verdana&quot;&gt;5...60&lt;/font&gt;&lt;/b&gt;" style="text;html=1;align=center;verticalAlign=middle;resizable=0;points=[];autosize=1;strokeColor=none;fillColor=none;" vertex="1" parent="QaKVlhrQLgwFmd9rYQSE-29">
          <mxGeometry x="12.5" y="38" width="60" height="30" as="geometry" />
        </mxCell>
        <mxCell id="QaKVlhrQLgwFmd9rYQSE-28" value="&lt;font face=&quot;Verdana&quot;&gt;&lt;b&gt;Intensity Scale, %&lt;br&gt;(Time &amp;amp; Energy)&lt;br&gt;&lt;/b&gt;&lt;/font&gt;" style="text;html=1;align=center;verticalAlign=middle;resizable=0;points=[];autosize=1;strokeColor=none;fillColor=none;" vertex="1" parent="QaKVlhrQLgwFmd9rYQSE-29">
          <mxGeometry x="90" width="140" height="50" as="geometry" />
        </mxCell>
      </root>
    </mxGraphModel>
  </diagram>
</mxfile>
